<svg xmlns="http://www.w3.org/2000/svg" viewBox="0 0 400 400" width="400" height="400"><rect width="400" height="400" fill="#eaf6ff"/><circle cx="200" cy="190" r="140" fill="#cfeafd"/><ellipse cx="200" cy="330" rx="120" ry="14" fill="#0f172a" fill-opacity="0.08"/>
<rect x="70" y="120" width="40" height="120" rx="8" fill="#64748b"/>
<path d="M110 150h120a50 50 0 0 1 50 50v30h-40v-30a10 10 0 0 0-10-10H110z" fill="#cbd5e1" stroke="#64748b" stroke-width="4"/>
<rect x="150" y="110" width="50" height="40" rx="6" fill="#64748b"/>
<rect x="120" y="96" width="110" height="18" rx="9" fill="#0b5cd5"/>
<rect x="236" y="228" width="48" height="12" rx="4" fill="#64748b"/>
<path d="M260 256c-14 22-22 34-22 46a22 22 0 0 0 44 0c0-12-8-24-22-46z" fill="#3b82f6"/></svg>